<svg xmlns="http://www.w3.org/2000/svg" viewBox="0 0 24 30" x="0px" y="0px"><path d="M7,15v7a1,1,0,0,1-1,1H2a1,1,0,0,1-1-1V15a1,1,0,0,1,1-1H6A1,1,0,0,1,7,15Zm7-5H10a1,1,0,0,0-1,1V22a1,1,0,0,0,1,1h4a1,1,0,0,0,1-1V11A1,1,0,0,0,14,10Zm8-4H18a1,1,0,0,0-1,1V22a1,1,0,0,0,1,1h4a1,1,0,0,0,1-1V7A1,1,0,0,0,22,6Z"/><text x="0" y="39" fill="#000000" font-size="5px" font-weight="bold" font-family="'Helvetica Neue', Helvetica, Arial-Unicode, Arial, Sans-serif">Created by Martin</text><text x="0" y="44" fill="#000000" font-size="5px" font-weight="bold" font-family="'Helvetica Neue', Helvetica, Arial-Unicode, Arial, Sans-serif">from the Noun Project</text></svg>