<svg xmlns="http://www.w3.org/2000/svg" viewBox="0 0 24 30" x="0px" y="0px"><path d="M7,15v7a1,1,0,0,1-1,1H2a1,1,0,0,1-1-1V15a1,1,0,0,1,1-1H6A1,1,0,0,1,7,15Zm8-4V22a1,1,0,0,1-1,1H10a1,1,0,0,1-1-1V11a1,1,0,0,1,1-1h4A1,1,0,0,1,15,11Zm-2,1H11v9h2ZM23,7V22a1,1,0,0,1-1,1H18a1,1,0,0,1-1-1V7a1,1,0,0,1,1-1h4A1,1,0,0,1,23,7ZM21,8H19V21h2Z"/><text x="0" y="39" fill="#000000" font-size="5px" font-weight="bold" font-family="'Helvetica Neue', Helvetica, Arial-Unicode, Arial, Sans-serif">Created by Martin</text><text x="0" y="44" fill="#000000" font-size="5px" font-weight="bold" font-family="'Helvetica Neue', Helvetica, Arial-Unicode, Arial, Sans-serif">from the Noun Project</text></svg>