<svg xmlns="http://www.w3.org/2000/svg" viewBox="0 0 24 30" x="0px" y="0px"><path d="M7,15.5v7a.5.5,0,0,1-.5.5h-5a.5.5,0,0,1-.5-.5v-7a.5.5,0,0,1,.5-.5h5A.5.5,0,0,1,7,15.5ZM14.5,11h-5a.5.5,0,0,0-.5.5v11a.5.5,0,0,0,.5.5h5a.5.5,0,0,0,.5-.5v-11A.5.5,0,0,0,14.5,11ZM23,6.5v16a.5.5,0,0,1-.5.5h-5a.5.5,0,0,1-.5-.5V6.5a.5.5,0,0,1,.5-.5h5A.5.5,0,0,1,23,6.5ZM22,7H18V22h4Z"/><text x="0" y="39" fill="#000000" font-size="5px" font-weight="bold" font-family="'Helvetica Neue', Helvetica, Arial-Unicode, Arial, Sans-serif">Created by Martin</text><text x="0" y="44" fill="#000000" font-size="5px" font-weight="bold" font-family="'Helvetica Neue', Helvetica, Arial-Unicode, Arial, Sans-serif">from the Noun Project</text></svg>